<?xml version="1.0" encoding="utf-8"?>
<!-- Svg Vector Icons : http://www.onlinewebfonts.com/icon -->
<!DOCTYPE svg PUBLIC "-//W3C//DTD SVG 1.1//EN" "http://www.w3.org/Graphics/SVG/1.1/DTD/svg11.dtd">
<svg version="1.1" xmlns="http://www.w3.org/2000/svg" xmlns:xlink="http://www.w3.org/1999/xlink" x="0px" y="0px" viewBox="0 0 1000 1000" enable-background="new 0 0 1000 1000" xml:space="preserve">
<metadata> Svg Vector Icons : http://www.onlinewebfonts.com/icon </metadata>
<g><g transform="translate(0.000000,512.000000) scale(0.100000,-0.100000)"><path d="M4559.8,4445.8c0-444.1-5.7-576.1-23-581.9c-13.4-3.8-120.6-24.9-237.3-47.9c-788.6-147.4-1592.5-620.2-2113.1-1240.3c-472.8-564.6-729.3-1127.4-872.8-1914.1l-7.7-44H702.9H100V120v-497.7h602.9h602.9l7.7-42.1c134-736.9,363.7-1267.1,771.4-1791.6c558.9-719.7,1445.1-1248,2323.7-1385.8l151.2-23v-580v-580h488.1h488.1v574.2c0,444.1,5.7,576.1,24.9,581.9c11.5,3.8,122.5,24.9,243.1,47.9c1395.4,266,2568.7,1385.8,2907.5,2771.6c30.6,124.4,61.2,271.8,68.9,327.3l13.4,99.5h553.2H9900V120v497.7h-553.2h-553.2l-13.4,101.4c-24.9,187.6-141.7,604.8-229.7,821.1c-187.6,459.4-434.5,836.4-784.8,1200.1c-534,555.1-1228.8,936-1961.9,1075.7c-120.6,23-231.6,44-243.1,47.9c-19.1,5.7-24.9,137.8-24.9,581.9V5020h-488.1h-488.1V4445.8z M5444.1,3077.2c719.7-93.8,1408.8-467,1864.3-1006.8c886.2-1047,974.3-2474.9,222-3606.1c-689.1-1037.4-1965.7-1537-3179.3-1244.1C3231.4-2508,2375.8-1619.9,2125.1-465.7C2088.7-301.1,2083-213.1,2083,120c0,442.1,26.8,616.3,153.1,978.1C2701.2,2436,4041.1,3262.9,5444.1,3077.2z"/><path d="M4667,2290.5C3763.5,2127.9,3057.2,1425.4,2885,520c-38.3-201-38.3-599.1,0-800.1C3084-1327,3989.4-2081.2,5047.9-2081.2c1091,0,2021.2,796.2,2182,1870C7390.7,853.1,6760.9,1873.3,5738.8,2214C5424.9,2317.3,4992.3,2349.9,4667,2290.5z"/></g></g>
</svg>